HIERARCHY
ROOT Hips
{
	OFFSET	0.00	0.00	0.00
	CHANNELS 6 Xposition Yposition Zposition Zrotation Xrotation Yrotation
	JOINT Chest
	{
		OFFSET	0.000000	6.275751	0.000000
		CHANNELS 3 Zrotation Xrotation Yrotation
		JOINT Neck
		{
			OFFSET	0.000000	14.296947	0.000000
			CHANNELS 3 Zrotation Xrotation Yrotation
			JOINT Head
			{
				OFFSET	0.000000	2.637461	0.000000
				CHANNELS 3 Zrotation Xrotation Yrotation
				End Site
				{
					OFFSET	0.000000	4.499004	0.000000
				}
			}
		}
		JOINT LeftCollar
		{
			OFFSET	1.120000	11.362855	1.870000
			CHANNELS 3 Zrotation Xrotation Yrotation
			JOINT LeftUpArm
			{
				OFFSET	4.565688	2.019026	-1.821179
				CHANNELS 3 Zrotation Xrotation Yrotation
				JOINT LeftLowArm
				{
					OFFSET	0.219729	-10.348825	-0.061708
					CHANNELS 3 Zrotation Xrotation Yrotation
					JOINT LeftHand
					{
						OFFSET	0.087892	-10.352228	2.178217
						CHANNELS 3 Zrotation Xrotation Yrotation
						End Site
						{
							OFFSET	0.131837	-6.692379	1.711456
						}
					}
				}
			}
		}
		JOINT RightCollar
		{
			OFFSET	-1.120000	11.362855	1.870000
			CHANNELS 3 Zrotation Xrotation Yrotation
			JOINT RightUpArm
			{
				OFFSET	-4.708080	2.034554	-1.821179
				CHANNELS 3 Zrotation Xrotation Yrotation
				JOINT RightLowArm
				{
					OFFSET	-0.263676	-10.428555	-0.061708
					CHANNELS 3 Zrotation Xrotation Yrotation
					JOINT RightHand
					{
						OFFSET	0.000000	-10.255345	2.178217
						CHANNELS 3 Zrotation Xrotation Yrotation
						End Site
						{
							OFFSET	-0.140882	-6.671274	1.711456
						}
					}
				}
			}
		}
	}
	JOINT LeftUpLeg
	{
		OFFSET	3.910000	0.000000	0.000000
		CHANNELS 3 Zrotation Xrotation Yrotation
		JOINT LeftLowLeg
		{
			OFFSET	-0.441177	-17.569450	1.695613
			CHANNELS 3 Zrotation Xrotation Yrotation
			JOINT LeftFoot
			{
				OFFSET	-0.043946	-17.197315	-1.478076
				CHANNELS 3 Zrotation Xrotation Yrotation
				End Site
				{
					OFFSET	0.000000	-3.933155	5.233925
				}
			}
		}
	}
	JOINT RightUpLeg
	{
		OFFSET	-3.910000	0.000000	0.000000
		CHANNELS 3 Zrotation Xrotation Yrotation
		JOINT RightLowLeg
		{
			OFFSET	0.437741	-17.622387	1.695613
			CHANNELS 3 Zrotation Xrotation Yrotation
			JOINT RightFoot
			{
				OFFSET	0.000000	-17.140001	-1.478076
				CHANNELS 3 Zrotation Xrotation Yrotation
				End Site
				{
					OFFSET	0.000000	-4.038528	5.233925
				}
			}
		}
	}
}
MOTION
Frames: 14
Frame Time: 0.04166667
-14.595814	4.496269	3.852243	12.001122	-8.883033	77.888687	2.348071	2.412247	-3.140476	10.623872	18.522745	-0.204705	-13.478948	15.463996	-0.217410	0.614300	1.900405	-12.394900	17.699724	-0.619785	-51.016430	-5.217480	1.459821	4.473320	-6.277470	2.535586	-1.331592	15.649655	-7.372834	0.191335	-21.105448	12.259625	16.977398	-7.817187	6.439276	1.508640	-0.468251	2.397545	-0.100423	1.747222	26.208475	7.963759	-1.299572	8.721684	1.681903	0.086229	-16.313274	-0.118090	11.518909	8.509129	-28.425817	3.060154	-8.946720	18.750202	-7.355326	3.209322	6.217257	
-14.113517	4.459701	4.043879	12.345509	-9.055626	77.221497	2.178797	1.844925	-3.273219	10.621986	19.088316	0.281271	-13.388890	15.913801	-0.104317	0.621909	1.547593	-12.581038	17.734543	0.613772	-51.168224	-5.336687	1.632418	4.609888	-7.205091	2.558722	-1.527429	15.724451	-7.733006	0.161359	-21.356190	13.763346	16.361139	-7.889869	6.261458	1.312793	3.279182	2.417218	0.703016	1.703180	27.028086	8.392179	-1.216921	9.886567	2.085993	-0.841005	-16.040287	-0.285554	11.904676	9.689678	-29.274307	3.202080	-8.896117	20.481558	-9.033961	3.797621	6.592150	
-13.260621	4.440209	4.242753	13.040499	-9.299990	76.530106	2.112702	2.048937	-3.186142	10.435086	19.229176	0.680025	-13.286812	16.034027	-0.073895	0.201675	2.119312	-12.160040	18.275780	0.604505	-51.157654	-5.080240	1.658845	4.473090	-7.634025	2.570490	-1.617862	16.070606	-7.545675	-0.062530	-21.750774	14.250413	14.809612	-8.013353	6.158872	1.293083	3.478006	2.419741	0.745550	1.560324	28.123947	8.817041	-1.100084	11.082829	2.618731	-1.678956	-15.433484	-0.419896	11.956058	11.138944	-28.792236	3.191791	-8.896520	20.362347	-9.293159	5.716254	6.948514	
-12.592097	4.422252	4.444279	13.197999	-9.603899	76.110504	2.404440	1.543905	-3.224303	10.170069	19.538120	0.857632	-13.286576	15.991201	-0.084442	-0.204964	1.726807	-12.296670	18.303326	1.907922	-52.896511	-4.561241	1.239598	4.305095	-8.799923	2.605908	-1.863222	15.933689	-7.766566	-0.005124	-21.670164	15.488202	12.563153	-8.178475	5.929728	1.291018	3.256898	2.416981	0.698209	2.627976	24.492451	4.655297	-0.409961	19.221630	4.410947	-9.956516	-11.972328	-1.238735	11.410095	10.955537	-28.423079	3.270921	-6.141083	19.979122	-9.313939	5.778878	6.963086	
-11.935061	4.445822	4.654826	13.345289	-9.747361	76.096733	2.411162	1.056224	-3.276414	10.148354	19.794546	0.540649	-13.264853	15.967080	-0.090229	-0.419509	1.386583	-12.461165	18.221588	2.915450	-53.628956	-4.246110	0.940876	4.161845	-8.959646	2.611111	-1.896768	15.956521	-8.112220	0.058214	-21.482645	16.729231	8.130207	-8.424654	5.589130	1.349078	2.132202	2.405637	0.457241	2.790383	24.769960	4.018132	-0.276431	20.396725	4.866255	-10.389017	-10.759654	-1.068177	10.059917	9.505843	-28.476679	3.506219	-0.306373	19.778364	-10.081266	3.581035	6.742303	
-11.286845	4.464571	4.884637	13.169584	-9.983106	76.380806	2.772873	0.131789	-3.525016	9.914962	20.188652	0.320492	-13.115717	16.037434	-0.072088	-0.680096	0.771107	-12.651265	17.892042	4.147353	-53.751747	-4.069584	0.658055	4.061684	-8.637233	2.600614	-1.829015	15.869366	-8.244751	0.261497	-21.187609	17.899000	6.506507	-8.830334	5.709414	1.387929	1.682887	2.402449	0.360907	3.339504	24.360643	3.106635	-0.178764	22.167833	5.185049	-10.753567	-9.466397	-0.858580	10.082430	9.709276	-28.631271	3.593143	1.267606	19.943327	-10.547624	2.345444	6.596346	
-10.645615	4.471931	5.124268	12.983710	-10.242102	76.659714	3.180384	-0.697850	-3.492151	9.720988	20.445370	0.045239	-12.977194	16.068769	-0.063772	-0.907990	0.422416	-12.811095	17.629751	4.992136	-54.258286	-3.691466	0.292204	3.886645	-8.796716	2.605766	-1.862555	15.811555	-8.289223	0.343024	-20.763268	18.779085	4.838884	-9.345618	5.911814	1.398076	1.679757	2.402376	0.360280	3.971695	23.675735	2.124353	-0.152264	24.340147	5.315728	-11.182116	-8.002416	-0.600979	10.624762	10.680041	-28.821144	3.596231	1.200267	20.050837	-10.914815	1.320891	6.456584	
-10.029078	4.466801	5.354959	12.897964	-10.444307	77.017548	3.556931	-1.199718	-3.346516	9.519366	20.469133	-0.231957	-12.893762	16.015999	-0.075944	-1.248946	0.593213	-12.720373	17.673790	5.013481	-52.749416	-3.501505	0.073063	3.709517	-7.944250	2.579425	-1.683217	15.897511	-8.188480	0.270877	-20.455723	19.130747	3.485428	-9.825047	6.045190	1.399625	1.742775	2.402802	0.373774	4.624182	22.918440	1.080202	-0.203368	26.600115	5.389357	-11.910076	-6.259195	-0.266096	11.075796	11.572618	-29.766214	3.652177	1.420944	20.650042	-11.471139	0.306694	6.327402	
-9.439138	4.432789	5.576315	12.541065	-10.693402	77.386116	4.282762	-2.080089	-3.403335	8.983702	20.683294	-0.187666	-12.839558	15.985076	-0.082959	-1.709086	0.217528	-12.740564	17.449387	5.775528	-52.340256	-3.145954	-0.298684	3.542504	-8.091743	2.583775	-1.714276	15.762823	-8.186698	0.454831	-20.252638	19.571981	6.352440	-9.919616	6.847860	1.238935	5.330296	2.450223	1.141739	5.407640	21.657854	-0.557605	-0.306549	29.125700	5.510447	-13.611484	-4.326077	0.183310	11.657341	12.170048	-30.613533	3.713695	1.603266	21.342932	-12.417442	-0.657787	6.227883	
-9.051775	4.366559	5.795569	11.951283	-11.106953	77.486389	5.414555	-3.278759	-3.429540	8.169523	21.090168	0.153768	-12.818592	15.911723	-0.100217	-2.109869	-0.863745	-12.994617	16.777399	7.494845	-52.258450	-2.742065	-0.720421	3.335426	-8.128477	2.584864	-1.722013	15.313634	-8.401497	0.832120	-20.244236	20.384428	5.740414	-9.898265	6.481834	1.250777	5.102691	2.445811	1.093098	6.394319	19.986359	-2.146207	-0.510892	32.023891	5.485113	-16.099010	-2.415569	0.798593	12.457057	12.469829	-31.507065	3.774228	1.932483	22.062490	-13.757041	-1.555886	6.145082	
-8.529495	4.276368	6.002791	11.407799	-11.537381	77.477844	6.391578	-4.152886	-3.307202	7.613481	21.323502	0.437164	-12.887968	15.788126	-0.130250	-2.363390	-1.628784	-13.211463	16.203905	8.715137	-50.923225	-2.601954	-0.932460	3.179585	-7.307830	2.561468	-1.549105	15.072657	-8.700757	1.039881	-20.434647	20.686790	4.470922	-9.889468	6.087735	1.324624	3.396441	2.418664	0.728102	7.648527	17.627224	-2.871178	-0.972633	35.921677	4.231548	-17.924417	-0.436824	1.551329	13.004570	12.464544	-32.300751	3.850387	2.927827	22.622169	-14.567885	-2.730893	5.909149	
-8.075562	4.179337	6.188527	11.014318	-11.924380	77.577774	7.110537	-4.432312	-3.225001	7.353149	21.227167	0.612598	-13.078012	15.642257	-0.167551	-2.601230	-1.672499	-13.295300	16.012465	8.897437	-49.845921	-2.523890	-0.923743	3.068301	-6.786335	2.547892	-1.439069	15.276804	-8.778874	1.027542	-20.859989	19.964245	2.586192	-10.106716	5.823978	1.471897	0.477100	2.397540	0.102322	8.903886	14.324616	-3.212039	-1.436181	40.997795	2.273786	-19.025349	2.246892	2.581159	13.441706	12.543961	-33.317120	3.955990	3.832725	23.468145	-15.144085	-3.845402	5.643730	
-7.697048	4.101094	6.348911	10.658821	-12.161810	77.860672	7.548980	-4.412708	-3.267331	7.268460	20.981499	0.649275	-13.204395	15.460854	-0.213577	-2.831321	-1.295449	-13.311330	16.136412	8.347961	-49.222698	-2.595015	-0.729373	3.065641	-6.540641	2.541824	-1.387185	15.728205	-8.619813	0.957022	-21.145536	18.246305	3.350214	-10.876509	6.920753	1.413027	0.725408	2.398093	0.155630	10.289399	10.037882	-2.649408	-1.680461	46.780010	-0.772698	-19.505659	6.012692	3.964185	13.658618	12.437072	-34.563519	4.086593	4.855296	24.455820	-15.515463	-4.788927	5.396931	
-7.380814	4.046338	6.483186	10.128075	-12.316458	78.186111	8.076112	-4.609153	-3.382181	6.979644	20.925364	0.668998	-13.155495	15.208480	-0.274228	-2.989877	-1.568030	-13.409627	15.976377	8.374177	-51.462284	-2.443061	-0.742888	3.163906	-8.396829	2.593087	-1.778472	15.794041	-8.589799	1.183992	-21.099512	16.221972	2.542392	-11.501873	8.914375	1.224979	2.758265	2.411362	0.591420	11.183130	4.795533	-2.950526	-1.893925	52.689125	-3.504716	-19.076582	10.749450	5.441826	13.944530	12.196818	-35.633690	4.170819	5.475776	25.109436	-15.773677	-5.458542	5.213655	
